<?xml version="1.0" encoding="utf-8"?>
<!-- Generator: Adobe Illustrator 22.0.0, SVG Export Plug-In . SVG Version: 6.00 Build 0)  -->
<svg version="1.1" id="_x31_" xmlns="http://www.w3.org/2000/svg" xmlns:xlink="http://www.w3.org/1999/xlink" x="0px" y="0px"
	 viewBox="0 0 490 121.6" style="enable-background:new 0 0 490 121.6;" xml:space="preserve">
<style type="text/css">
	.st0{fill-rule:evenodd;clip-rule:evenodd;fill:#E61F48;}
	.st1{fill-rule:evenodd;clip-rule:evenodd;fill:#42BFE8;}
	.st2{fill-rule:evenodd;clip-rule:evenodd;fill:#003A7E;}
</style>
<path class="st0" d="M332.3,17.3C332.3,7.7,340,0,349.6,0c9.5,0,17.3,7.7,17.3,17.3c0,9.5-7.7,17.3-17.3,17.3
	C340,34.6,332.3,26.8,332.3,17.3z"/>
<path class="st1" d="M370.8,41.2c-0.1,11.7-9.5,21.1-21.2,21.1c-11.7,0-21.2-9.4-21.2-21.1h-27.1c0.2,47.2,48.3,80.4,48.3,80.4V89.5
	c0,0,14,0.3,26.9-8.2c12.9-8.5,19.3-22.2,20.4-29.9c0.1-0.8,0.3-1.6,0.5-2.4c0.3-2.5,0.5-5.1,0.5-7.8H370.8z"/>
<path class="st2" d="M412.2,80.6V41.2h18.3c8.4,0,16.8,3.2,16.8,13.9c0,6.1-2.8,9.8-6.8,11.8l10.1,13.8h-14.3L428.3,69h-3v11.7
	H412.2L412.2,80.6z M425.2,59.2L425.2,59.2h5c2.5,0,4-1.5,4-3.7c0-2.2-1.5-3.7-4-3.7h-5V59.2z"/>
<path class="st2" d="M490,41.2v24.1c0,12.2-9,16.2-18.3,16.2c-9.4,0-18.3-4.1-18.3-16.2V41.2h13v23.5c0,3.7,1.9,5.2,5.3,5.2
	c3.4,0,5.3-1.5,5.3-5.2V41.2H490z"/>
<path class="st2" d="M0,80.6V41.2h18.3c8.4,0,16.8,3.2,16.8,13.9c0,6.1-2.8,9.8-6.8,11.8l10.1,13.8H24.2L16.1,69h-3v11.7H0L0,80.6z
	 M13,59.2L13,59.2h5c2.5,0,4-1.5,4-3.7c0-2.2-1.5-3.7-4-3.7h-5V59.2z"/>
<path class="st2" d="M39.8,80.6l14.8-39.5h14l14.7,39.5H70.1l-1.7-5.2H54.8L53,80.6H39.8L39.8,80.6z M57.7,66L57.7,66h7.7l-2.8-8.4
	c-0.5-1.5-0.8-3-1.1-5.1c-0.3,2-0.7,3.6-1.1,5.1L57.7,66z"/>
<path class="st2" d="M107.3,41.2c8.9,0,14,3.1,14,10c0,4.1-1.6,6.9-5.6,8.5c4.6,1.4,7.2,4.6,7.2,9.7c0,9-7.8,11.3-16.1,11.3H87.6
	V41.2H107.3L107.3,41.2z M105.5,50.8L105.5,50.8h-4.9v5.8l4.9,0.1c2.2,0,3.3-1.3,3.3-2.9C108.8,52.1,107.7,50.8,105.5,50.8
	L105.5,50.8z M106.2,64.6L106.2,64.6h-5.5V71h5.5c2.5,0,3.8-1.1,3.8-3.2C109.9,65.8,108.6,64.6,106.2,64.6z"/>
<path class="st2" d="M148.3,40.3c14.2,0,21.4,9.3,21.4,20.6c0,11.3-7.2,20.6-21.4,20.6c-14.2,0-21.4-9.3-21.4-20.6
	C126.9,49.6,134.1,40.3,148.3,40.3L148.3,40.3z M148.3,52.1L148.3,52.1c-5.1,0-8,3.4-8,8.8s2.9,8.9,8,8.9c5.1,0,8-3.4,8-8.9
	S153.4,52.1,148.3,52.1z"/>
<polygon class="st2" points="206.2,41.2 206.2,52.6 195.6,52.6 195.6,80.6 182.7,80.6 182.7,52.6 172.1,52.6 172.1,41.2 "/>
<path class="st2" d="M247.6,41.2v24.1c0,12.2-9,16.2-18.3,16.2c-9.4,0-18.3-4.1-18.3-16.2V41.2h13v23.5c0,3.7,1.9,5.2,5.3,5.2
	c3.4,0,5.3-1.5,5.3-5.2V41.2H247.6z"/>
<polygon class="st2" points="286.5,41.2 286.5,52.6 275.9,52.6 275.9,80.6 262.9,80.6 262.9,52.6 252.3,52.6 252.3,41.2 "/>
</svg>
